<svg xmlns="http://www.w3.org/2000/svg" viewBox="0 0 800 400" font-family="-apple-system, 'Inter', sans-serif">
  <defs>
    <linearGradient id="sbg" x1="0" y1="0" x2="0" y2="1">
      <stop offset="0" stop-color="#0c1018"/>
      <stop offset="1" stop-color="#06080d"/>
    </linearGradient>
  </defs>
  <rect width="800" height="400" fill="url(#sbg)"/>

  <!-- Title -->
  <text x="40" y="40" fill="#9fb3c8" font-size="11" font-weight="500" letter-spacing="2.4">CROSS-DOMAIN JOIN — MESSAGES × BIOMETRICS</text>
  <line x1="40" y1="52" x2="760" y2="52" stroke="#243044" stroke-width="1"/>

  <!-- Y axis label -->
  <text x="-200" y="22" fill="#64748b" font-size="11" font-family="'IBM Plex Mono', monospace" letter-spacing="1" transform="rotate(-90)" text-anchor="middle">NEXT-DAY HRV (ms)</text>

  <!-- X axis label -->
  <text x="425" y="385" fill="#64748b" font-size="11" font-family="'IBM Plex Mono', monospace" letter-spacing="1" text-anchor="middle">LATE-NIGHT MESSAGES SENT (count, capped at 80)</text>

  <!-- Plot area background -->
  <rect x="90" y="60" width="670" height="280" fill="#0a0d14" stroke="#1a2233" stroke-width="1"/>

  <!-- Y gridlines + ticks -->
  <g stroke="#1a2233" stroke-width="1">
    <line x1="90" y1="84" x2="760" y2="84"/>
    <line x1="90" y1="133" x2="760" y2="133"/>
    <line x1="90" y1="181" x2="760" y2="181"/>
    <line x1="90" y1="230" x2="760" y2="230"/>
    <line x1="90" y1="279" x2="760" y2="279"/>
  </g>
  <g fill="#64748b" font-family="'IBM Plex Mono', monospace" font-size="10" text-anchor="end">
    <text x="82" y="88">100</text>
    <text x="82" y="137">80</text>
    <text x="82" y="185">60</text>
    <text x="82" y="234">40</text>
    <text x="82" y="283">20</text>
    <text x="82" y="343">0</text>
  </g>

  <!-- X ticks -->
  <g fill="#64748b" font-family="'IBM Plex Mono', monospace" font-size="10" text-anchor="middle">
    <text x="90" y="358">0</text>
    <text x="257.5" y="358">20</text>
    <text x="425" y="358">40</text>
    <text x="592.5" y="358">60</text>
    <text x="760" y="358">80+</text>
  </g>

  <!-- Data points -->
  <g>
    <circle cx="92.0" cy="202.7" r="3.5" fill="#60a5fa" opacity="0.45"/>
    <circle cx="105.4" cy="229.9" r="3.5" fill="#e8a838" opacity="0.65"/>
    <circle cx="93.3" cy="245.4" r="3.5" fill="#60a5fa" opacity="0.45"/>
    <circle cx="95.5" cy="234.5" r="3.5" fill="#60a5fa" opacity="0.45"/>
    <circle cx="114.7" cy="278.2" r="3.5" fill="#e8a838" opacity="0.65"/>
    <circle cx="105.1" cy="269.4" r="3.5" fill="#e8a838" opacity="0.65"/>
    <circle cx="83.4" cy="137.3" r="3.5" fill="#60a5fa" opacity="0.45"/>
    <circle cx="92.1" cy="155.0" r="3.5" fill="#60a5fa" opacity="0.45"/>
    <circle cx="96.7" cy="276.9" r="3.5" fill="#e8a838" opacity="0.65"/>
    <circle cx="94.3" cy="132.1" r="3.5" fill="#60a5fa" opacity="0.45"/>
    <circle cx="94.3" cy="286.8" r="3.5" fill="#60a5fa" opacity="0.45"/>
    <circle cx="87.8" cy="234.6" r="3.5" fill="#60a5fa" opacity="0.45"/>
    <circle cx="96.4" cy="130.3" r="3.5" fill="#60a5fa" opacity="0.45"/>
    <circle cx="84.3" cy="144.4" r="3.5" fill="#60a5fa" opacity="0.45"/>
    <circle cx="94.9" cy="96.7" r="3.5" fill="#60a5fa" opacity="0.45"/>
    <circle cx="94.3" cy="170.0" r="3.5" fill="#60a5fa" opacity="0.45"/>
    <circle cx="90.5" cy="153.5" r="3.5" fill="#60a5fa" opacity="0.45"/>
    <circle cx="88.3" cy="254.9" r="3.5" fill="#60a5fa" opacity="0.45"/>
    <circle cx="94.6" cy="238.0" r="3.5" fill="#60a5fa" opacity="0.45"/>
    <circle cx="184.3" cy="254.9" r="3.5" fill="#ef6f4e" opacity="0.75"/>
    <circle cx="92.9" cy="178.4" r="3.5" fill="#60a5fa" opacity="0.45"/>
    <circle cx="86.2" cy="208.1" r="3.5" fill="#60a5fa" opacity="0.45"/>
    <circle cx="84.1" cy="281.0" r="3.5" fill="#60a5fa" opacity="0.45"/>
    <circle cx="84.4" cy="79.0" r="3.5" fill="#60a5fa" opacity="0.45"/>
    <circle cx="149.4" cy="115.7" r="3.5" fill="#e8a838" opacity="0.65"/>
    <circle cx="97.6" cy="188.5" r="3.5" fill="#e8a838" opacity="0.65"/>
    <circle cx="86.7" cy="138.8" r="3.5" fill="#60a5fa" opacity="0.45"/>
    <circle cx="92.1" cy="186.8" r="3.5" fill="#60a5fa" opacity="0.45"/>
    <circle cx="85.4" cy="245.5" r="3.5" fill="#60a5fa" opacity="0.45"/>
    <circle cx="85.3" cy="135.2" r="3.5" fill="#60a5fa" opacity="0.45"/>
    <circle cx="143.2" cy="116.3" r="3.5" fill="#e8a838" opacity="0.65"/>
    <circle cx="115.5" cy="184.5" r="3.5" fill="#e8a838" opacity="0.65"/>
    <circle cx="167.4" cy="199.3" r="3.5" fill="#e8a838" opacity="0.65"/>
    <circle cx="205.6" cy="212.5" r="3.5" fill="#ef6f4e" opacity="0.75"/>
    <circle cx="87.4" cy="212.9" r="3.5" fill="#60a5fa" opacity="0.45"/>
    <circle cx="86.0" cy="172.9" r="3.5" fill="#60a5fa" opacity="0.45"/>
    <circle cx="95.3" cy="193.5" r="3.5" fill="#60a5fa" opacity="0.45"/>
    <circle cx="610.2" cy="283.8" r="3.5" fill="#ef6f4e" opacity="0.75"/>
    <circle cx="95.8" cy="164.6" r="3.5" fill="#60a5fa" opacity="0.45"/>
    <circle cx="86.7" cy="127.7" r="3.5" fill="#60a5fa" opacity="0.45"/>
    <circle cx="90.9" cy="186.1" r="3.5" fill="#60a5fa" opacity="0.45"/>
    <circle cx="91.2" cy="180.1" r="3.5" fill="#60a5fa" opacity="0.45"/>
    <circle cx="88.6" cy="183.6" r="3.5" fill="#60a5fa" opacity="0.45"/>
    <circle cx="97.0" cy="274.3" r="3.5" fill="#60a5fa" opacity="0.45"/>
    <circle cx="472.8" cy="200.3" r="3.5" fill="#ef6f4e" opacity="0.75"/>
    <circle cx="84.5" cy="216.1" r="3.5" fill="#60a5fa" opacity="0.45"/>
    <circle cx="94.1" cy="135.3" r="3.5" fill="#60a5fa" opacity="0.45"/>
    <circle cx="146.0" cy="271.6" r="3.5" fill="#e8a838" opacity="0.65"/>
    <circle cx="96.9" cy="284.1" r="3.5" fill="#60a5fa" opacity="0.45"/>
    <circle cx="96.6" cy="226.3" r="3.5" fill="#60a5fa" opacity="0.45"/>
    <circle cx="83.2" cy="114.0" r="3.5" fill="#60a5fa" opacity="0.45"/>
    <circle cx="92.5" cy="286.5" r="3.5" fill="#60a5fa" opacity="0.45"/>
    <circle cx="86.7" cy="121.2" r="3.5" fill="#60a5fa" opacity="0.45"/>
    <circle cx="84.6" cy="89.1" r="3.5" fill="#60a5fa" opacity="0.45"/>
    <circle cx="89.4" cy="104.7" r="3.5" fill="#60a5fa" opacity="0.45"/>
    <circle cx="284.9" cy="249.4" r="3.5" fill="#ef6f4e" opacity="0.75"/>
    <circle cx="106.8" cy="220.1" r="3.5" fill="#e8a838" opacity="0.65"/>
    <circle cx="95.8" cy="240.9" r="3.5" fill="#60a5fa" opacity="0.45"/>
    <circle cx="87.2" cy="174.7" r="3.5" fill="#60a5fa" opacity="0.45"/>
    <circle cx="91.5" cy="232.2" r="3.5" fill="#60a5fa" opacity="0.45"/>
    <circle cx="93.7" cy="116.1" r="3.5" fill="#60a5fa" opacity="0.45"/>
    <circle cx="141.9" cy="169.6" r="3.5" fill="#e8a838" opacity="0.65"/>
    <circle cx="95.4" cy="96.2" r="3.5" fill="#e8a838" opacity="0.65"/>
    <circle cx="179.2" cy="226.4" r="3.5" fill="#ef6f4e" opacity="0.75"/>
    <circle cx="95.3" cy="155.6" r="3.5" fill="#60a5fa" opacity="0.45"/>
    <circle cx="87.3" cy="246.6" r="3.5" fill="#60a5fa" opacity="0.45"/>
    <circle cx="95.3" cy="199.7" r="3.5" fill="#60a5fa" opacity="0.45"/>
    <circle cx="84.2" cy="245.0" r="3.5" fill="#60a5fa" opacity="0.45"/>
    <circle cx="84.0" cy="116.5" r="3.5" fill="#60a5fa" opacity="0.45"/>
    <circle cx="93.7" cy="239.4" r="3.5" fill="#60a5fa" opacity="0.45"/>
    <circle cx="89.7" cy="145.3" r="3.5" fill="#60a5fa" opacity="0.45"/>
    <circle cx="86.7" cy="146.0" r="3.5" fill="#60a5fa" opacity="0.45"/>
    <circle cx="88.9" cy="132.5" r="3.5" fill="#60a5fa" opacity="0.45"/>
    <circle cx="232.6" cy="170.0" r="3.5" fill="#ef6f4e" opacity="0.75"/>
    <circle cx="105.0" cy="152.1" r="3.5" fill="#e8a838" opacity="0.65"/>
    <circle cx="96.9" cy="157.7" r="3.5" fill="#60a5fa" opacity="0.45"/>
    <circle cx="89.1" cy="223.2" r="3.5" fill="#60a5fa" opacity="0.45"/>
    <circle cx="138.0" cy="152.0" r="3.5" fill="#e8a838" opacity="0.65"/>
    <circle cx="239.8" cy="203.8" r="3.5" fill="#ef6f4e" opacity="0.75"/>
    <circle cx="86.2" cy="176.3" r="3.5" fill="#60a5fa" opacity="0.45"/>
    <circle cx="84.0" cy="106.5" r="3.5" fill="#60a5fa" opacity="0.45"/>
    <circle cx="86.2" cy="119.2" r="3.5" fill="#60a5fa" opacity="0.45"/>
    <circle cx="125.7" cy="280.7" r="3.5" fill="#e8a838" opacity="0.65"/>
    <circle cx="86.3" cy="191.8" r="3.5" fill="#60a5fa" opacity="0.45"/>
    <circle cx="130.2" cy="205.4" r="3.5" fill="#e8a838" opacity="0.65"/>
    <circle cx="96.1" cy="89.4" r="3.5" fill="#60a5fa" opacity="0.45"/>
    <circle cx="98.2" cy="240.7" r="3.5" fill="#e8a838" opacity="0.65"/>
    <circle cx="94.3" cy="183.6" r="3.5" fill="#60a5fa" opacity="0.45"/>
    <circle cx="121.1" cy="247.3" r="3.5" fill="#e8a838" opacity="0.65"/>
    <circle cx="88.9" cy="181.7" r="3.5" fill="#60a5fa" opacity="0.45"/>
    <circle cx="93.2" cy="145.6" r="3.5" fill="#60a5fa" opacity="0.45"/>
    <circle cx="109.7" cy="283.2" r="3.5" fill="#e8a838" opacity="0.65"/>
    <circle cx="88.6" cy="144.9" r="3.5" fill="#60a5fa" opacity="0.45"/>
    <circle cx="95.1" cy="159.3" r="3.5" fill="#60a5fa" opacity="0.45"/>
    <circle cx="85.7" cy="162.2" r="3.5" fill="#60a5fa" opacity="0.45"/>
    <circle cx="88.9" cy="137.5" r="3.5" fill="#60a5fa" opacity="0.45"/>
    <circle cx="86.5" cy="116.8" r="3.5" fill="#60a5fa" opacity="0.45"/>
    <circle cx="89.2" cy="136.2" r="3.5" fill="#60a5fa" opacity="0.45"/>
    <circle cx="90.7" cy="244.1" r="3.5" fill="#60a5fa" opacity="0.45"/>
    <circle cx="97.0" cy="201.9" r="3.5" fill="#60a5fa" opacity="0.45"/>
    <circle cx="96.6" cy="253.2" r="3.5" fill="#60a5fa" opacity="0.45"/>
    <circle cx="175.8" cy="217.6" r="3.5" fill="#ef6f4e" opacity="0.75"/>
    <circle cx="89.8" cy="188.5" r="3.5" fill="#60a5fa" opacity="0.45"/>
    <circle cx="88.6" cy="239.3" r="3.5" fill="#60a5fa" opacity="0.45"/>
    <circle cx="88.3" cy="199.8" r="3.5" fill="#60a5fa" opacity="0.45"/>
    <circle cx="86.7" cy="138.5" r="3.5" fill="#60a5fa" opacity="0.45"/>
    <circle cx="89.4" cy="244.9" r="3.5" fill="#60a5fa" opacity="0.45"/>
    <circle cx="511.5" cy="246.0" r="3.5" fill="#ef6f4e" opacity="0.75"/>
    <circle cx="90.8" cy="247.9" r="3.5" fill="#60a5fa" opacity="0.45"/>
    <circle cx="85.2" cy="239.8" r="3.5" fill="#60a5fa" opacity="0.45"/>
    <circle cx="101.2" cy="167.3" r="3.5" fill="#e8a838" opacity="0.65"/>
    <circle cx="257.8" cy="233.4" r="3.5" fill="#ef6f4e" opacity="0.75"/>
    <circle cx="83.8" cy="177.0" r="3.5" fill="#60a5fa" opacity="0.45"/>
    <circle cx="90.0" cy="116.7" r="3.5" fill="#60a5fa" opacity="0.45"/>
    <circle cx="85.2" cy="199.7" r="3.5" fill="#60a5fa" opacity="0.45"/>
    <circle cx="84.1" cy="147.0" r="3.5" fill="#60a5fa" opacity="0.45"/>
    <circle cx="91.3" cy="191.8" r="3.5" fill="#60a5fa" opacity="0.45"/>
    <circle cx="86.3" cy="256.5" r="3.5" fill="#60a5fa" opacity="0.45"/>
    <circle cx="95.5" cy="229.9" r="3.5" fill="#60a5fa" opacity="0.45"/>
    <circle cx="91.3" cy="225.8" r="3.5" fill="#60a5fa" opacity="0.45"/>
    <circle cx="88.9" cy="82.1" r="3.5" fill="#60a5fa" opacity="0.45"/>
    <circle cx="90.3" cy="85.2" r="3.5" fill="#60a5fa" opacity="0.45"/>
    <circle cx="85.9" cy="240.6" r="3.5" fill="#60a5fa" opacity="0.45"/>
    <circle cx="86.3" cy="103.6" r="3.5" fill="#60a5fa" opacity="0.45"/>
    <circle cx="92.4" cy="130.2" r="3.5" fill="#60a5fa" opacity="0.45"/>
    <circle cx="87.4" cy="84.9" r="3.5" fill="#60a5fa" opacity="0.45"/>
    <circle cx="84.0" cy="137.8" r="3.5" fill="#60a5fa" opacity="0.45"/>
    <circle cx="721.1" cy="255.8" r="3.5" fill="#ef6f4e" opacity="0.75"/>
    <circle cx="95.8" cy="205.5" r="3.5" fill="#e8a838" opacity="0.65"/>
    <circle cx="86.7" cy="138.8" r="3.5" fill="#60a5fa" opacity="0.45"/>
    <circle cx="95.3" cy="231.2" r="3.5" fill="#60a5fa" opacity="0.45"/>
    <circle cx="248.3" cy="181.1" r="3.5" fill="#ef6f4e" opacity="0.75"/>
    <circle cx="100.4" cy="269.8" r="3.5" fill="#e8a838" opacity="0.65"/>
    <circle cx="107.4" cy="219.2" r="3.5" fill="#e8a838" opacity="0.65"/>
    <circle cx="92.2" cy="222.1" r="3.5" fill="#60a5fa" opacity="0.45"/>
    <circle cx="94.4" cy="142.4" r="3.5" fill="#60a5fa" opacity="0.45"/>
    <circle cx="92.3" cy="226.4" r="3.5" fill="#60a5fa" opacity="0.45"/>
    <circle cx="129.7" cy="268.6" r="3.5" fill="#e8a838" opacity="0.65"/>
    <circle cx="84.5" cy="240.3" r="3.5" fill="#60a5fa" opacity="0.45"/>
    <circle cx="86.8" cy="147.9" r="3.5" fill="#60a5fa" opacity="0.45"/>
    <circle cx="93.0" cy="215.2" r="3.5" fill="#60a5fa" opacity="0.45"/>
    <circle cx="91.9" cy="137.4" r="3.5" fill="#60a5fa" opacity="0.45"/>
    <circle cx="89.8" cy="238.5" r="3.5" fill="#60a5fa" opacity="0.45"/>
    <circle cx="94.8" cy="149.3" r="3.5" fill="#60a5fa" opacity="0.45"/>
    <circle cx="88.9" cy="237.3" r="3.5" fill="#60a5fa" opacity="0.45"/>
    <circle cx="154.0" cy="284.5" r="3.5" fill="#e8a838" opacity="0.65"/>
    <circle cx="91.9" cy="183.7" r="3.5" fill="#60a5fa" opacity="0.45"/>
    <circle cx="108.2" cy="196.5" r="3.5" fill="#e8a838" opacity="0.65"/>
    <circle cx="97.9" cy="207.5" r="3.5" fill="#e8a838" opacity="0.65"/>
    <circle cx="84.1" cy="94.9" r="3.5" fill="#60a5fa" opacity="0.45"/>
    <circle cx="95.7" cy="164.8" r="3.5" fill="#60a5fa" opacity="0.45"/>
    <circle cx="100.4" cy="264.7" r="3.5" fill="#e8a838" opacity="0.65"/>
    <circle cx="85.1" cy="98.2" r="3.5" fill="#60a5fa" opacity="0.45"/>
    <circle cx="356.8" cy="182.5" r="3.5" fill="#ef6f4e" opacity="0.75"/>
    <circle cx="276.0" cy="292.0" r="3.5" fill="#ef6f4e" opacity="0.75"/>
    <circle cx="95.6" cy="217.7" r="3.5" fill="#60a5fa" opacity="0.45"/>
    <circle cx="86.5" cy="110.3" r="3.5" fill="#60a5fa" opacity="0.45"/>
    <circle cx="93.9" cy="126.5" r="3.5" fill="#60a5fa" opacity="0.45"/>
    <circle cx="533.3" cy="242.9" r="3.5" fill="#ef6f4e" opacity="0.75"/>
    <circle cx="305.7" cy="226.4" r="3.5" fill="#ef6f4e" opacity="0.75"/>
    <circle cx="134.1" cy="263.0" r="3.5" fill="#e8a838" opacity="0.65"/>
    <circle cx="234.2" cy="209.3" r="3.5" fill="#ef6f4e" opacity="0.75"/>
    <circle cx="83.3" cy="201.7" r="3.5" fill="#60a5fa" opacity="0.45"/>
    <circle cx="87.7" cy="170.4" r="3.5" fill="#60a5fa" opacity="0.45"/>
    <circle cx="94.2" cy="124.0" r="3.5" fill="#60a5fa" opacity="0.45"/>
    <circle cx="94.4" cy="174.0" r="3.5" fill="#60a5fa" opacity="0.45"/>
    <circle cx="94.0" cy="173.7" r="3.5" fill="#60a5fa" opacity="0.45"/>
    <circle cx="519.4" cy="80.2" r="3.5" fill="#ef6f4e" opacity="0.75"/>
    <circle cx="130.2" cy="265.2" r="3.5" fill="#e8a838" opacity="0.65"/>
    <circle cx="89.4" cy="264.1" r="3.5" fill="#60a5fa" opacity="0.45"/>
    <circle cx="94.1" cy="212.8" r="3.5" fill="#60a5fa" opacity="0.45"/>
    <circle cx="83.3" cy="178.7" r="3.5" fill="#60a5fa" opacity="0.45"/>
    <circle cx="87.6" cy="228.7" r="3.5" fill="#60a5fa" opacity="0.45"/>
    <circle cx="96.5" cy="181.3" r="3.5" fill="#60a5fa" opacity="0.45"/>
    <circle cx="92.0" cy="179.1" r="3.5" fill="#60a5fa" opacity="0.45"/>
    <circle cx="96.7" cy="250.0" r="3.5" fill="#60a5fa" opacity="0.45"/>
    <circle cx="96.1" cy="142.0" r="3.5" fill="#60a5fa" opacity="0.45"/>
    <circle cx="96.6" cy="232.2" r="3.5" fill="#60a5fa" opacity="0.45"/>
    <circle cx="101.2" cy="200.7" r="3.5" fill="#e8a838" opacity="0.65"/>
    <circle cx="84.5" cy="227.9" r="3.5" fill="#60a5fa" opacity="0.45"/>
    <circle cx="93.2" cy="144.8" r="3.5" fill="#60a5fa" opacity="0.45"/>
    <circle cx="91.5" cy="81.9" r="3.5" fill="#60a5fa" opacity="0.45"/>
    <circle cx="88.4" cy="174.6" r="3.5" fill="#60a5fa" opacity="0.45"/>
    <circle cx="86.6" cy="123.7" r="3.5" fill="#60a5fa" opacity="0.45"/>
    <circle cx="112.1" cy="275.1" r="3.5" fill="#e8a838" opacity="0.65"/>
    <circle cx="90.5" cy="243.0" r="3.5" fill="#60a5fa" opacity="0.45"/>
    <circle cx="93.4" cy="157.7" r="3.5" fill="#60a5fa" opacity="0.45"/>
    <circle cx="189.7" cy="246.6" r="3.5" fill="#ef6f4e" opacity="0.75"/>
    <circle cx="92.3" cy="227.7" r="3.5" fill="#60a5fa" opacity="0.45"/>
    <circle cx="87.4" cy="223.8" r="3.5" fill="#60a5fa" opacity="0.45"/>
    <circle cx="93.1" cy="244.6" r="3.5" fill="#60a5fa" opacity="0.45"/>
    <circle cx="122.4" cy="137.7" r="3.5" fill="#e8a838" opacity="0.65"/>
    <circle cx="88.6" cy="154.5" r="3.5" fill="#60a5fa" opacity="0.45"/>
    <circle cx="84.8" cy="208.4" r="3.5" fill="#60a5fa" opacity="0.45"/>
    <circle cx="243.4" cy="223.5" r="3.5" fill="#ef6f4e" opacity="0.75"/>
    <circle cx="95.6" cy="191.7" r="3.5" fill="#60a5fa" opacity="0.45"/>
    <circle cx="87.2" cy="177.0" r="3.5" fill="#60a5fa" opacity="0.45"/>
    <circle cx="83.0" cy="127.7" r="3.5" fill="#60a5fa" opacity="0.45"/>
    <circle cx="89.0" cy="254.9" r="3.5" fill="#60a5fa" opacity="0.45"/>
    <circle cx="92.2" cy="179.2" r="3.5" fill="#60a5fa" opacity="0.45"/>
  </g>

  <!-- Legend -->
  <g transform="translate(560, 72)">
    <rect x="0" y="0" width="190" height="64" fill="#0c1018" stroke="#243044" stroke-width="1" rx="4"/>
    <circle cx="14" cy="18" r="3.5" fill="#60a5fa" opacity="0.7"/>
    <text x="26" y="22" fill="#9fb3c8" font-size="10" font-family="'IBM Plex Mono', monospace">0 late-night msgs</text>
    <circle cx="14" cy="36" r="3.5" fill="#e8a838" opacity="0.8"/>
    <text x="26" y="40" fill="#9fb3c8" font-size="10" font-family="'IBM Plex Mono', monospace">1–9 late-night msgs</text>
    <circle cx="14" cy="54" r="3.5" fill="#ef6f4e" opacity="0.85"/>
    <text x="26" y="58" fill="#9fb3c8" font-size="10" font-family="'IBM Plex Mono', monospace">10+ late-night msgs</text>
  </g>

  <!-- Caption note -->
  <text x="90" y="76" fill="#64748b" font-size="10" font-family="'IBM Plex Mono', monospace">n=200 sampled days · 2024–2026</text>
</svg>
